<svg id="Capa_1" data-name="Capa 1" xmlns="http://www.w3.org/2000/svg" viewBox="0 0 2490.32 2428.85"><defs><style>.cls-1{fill:#eef6ff;}</style></defs><path class="cls-1" d="M1245.17,0C557.57,0,0,557.47,0,1245.17c0,550.15,356.78,1016.89,851.52,1181.54,62.23,11.52,85.08-27,85.08-59.9,0-29.69-1.16-127.79-1.69-231.83C588.5,2210.3,515.4,1988.07,515.4,1988.07c-56.64-143.93-138.25-182.19-138.25-182.19-113-77.29,8.51-75.7,8.51-75.7,125,8.78,190.88,128.32,190.88,128.32C687.6,2048.86,867.83,1993.82,938.89,1962c11.17-80.49,43.44-135.41,79.05-166.5-276.56-31.5-567.31-138.26-567.31-615.37,0-135.94,48.65-247,128.31-334.22C566,814.55,523.39,687.91,591,516.4c0,0,104.56-33.47,342.51,127.63,99.31-27.59,205.84-41.42,311.66-41.89,105.82.47,212.42,14.3,311.93,41.89,237.67-161.1,342.08-127.63,342.08-127.63,67.77,171.51,25.14,298.15,12.21,329.52,79.83,87.2,128.14,198.27,128.14,334.22,0,478.24-291.29,583.55-568.55,614.37,44.65,38.64,84.45,114.43,84.45,230.59,0,166.6-1.45,300.69-1.45,341.71,0,33.13,22.42,72,85.54,59.73,494.47-164.83,850.8-631.4,850.8-1181.37C2490.32,557.47,1932.83,0,1245.17,0"/><path class="cls-1" d="M466.36,1773.77c-2.74,6.18-12.48,8-21.34,3.8-9-4.06-14.11-12.5-11.18-18.71,2.68-6.37,12.43-8.15,21.44-3.87,9.06,4,14.21,12.57,11.08,18.78m61.25,54.65c-5.94,5.51-17.55,2.95-25.43-5.75-8.15-8.69-9.67-20.29-3.64-25.88s17.38-2.93,25.54,5.76,9.73,20.31,3.52,25.88m42,69.91c-7.64,5.3-20.12.33-27.82-10.74s-7.63-24.35.16-29.67,20-.54,27.83,10.45c7.62,11.26,7.62,24.54-.18,30m71.06,81c-6.82,7.52-21.35,5.5-32-4.77-10.88-10-13.91-24.29-7.07-31.82s21.52-5.42,32.25,4.77c10.81,10,14.11,24.37,6.83,31.82m91.83,27.34c-3,9.75-17,14.18-31.1,10S678.12,2001,681,1991.16s17-14.43,31.2-10c14.06,4.25,23.3,15.59,20.37,25.51m104.52,11.59c.35,10.28-11.61,18.79-26.42,19s-26.93-8-27.09-18.09c0-10.37,11.69-18.81,26.58-19.05s26.93,8,26.93,18.16m102.68-3.93c1.77,10-8.52,20.31-23.22,23-14.45,2.64-27.83-3.54-29.67-13.47-1.8-10.28,8.69-20.56,23.11-23.23,14.73-2.55,27.9,3.47,29.78,13.66"/></svg>