<svg id="Capa_1" data-name="Capa 1" xmlns="http://www.w3.org/2000/svg" xmlns:xlink="http://www.w3.org/1999/xlink" viewBox="0 0 200 177.28"><defs><style>.cls-1,.cls-7,.cls-8{fill:#fff;}.cls-1{fill-rule:evenodd;}.cls-2{mask:url(#mask);}.cls-3{fill:#f4b400;}.cls-4{fill:#f1f1f1;}.cls-5{fill:url(#Degradado_sin_nombre_4);}.cls-6{fill:#fada80;}.cls-10,.cls-17,.cls-7{fill-opacity:0.1;}.cls-16,.cls-8,.cls-9{fill-opacity:0.2;}.cls-10,.cls-9{fill:#bf360c;}.cls-11{fill:url(#Degradado_sin_nombre_2);}.cls-12{mask:url(#mask-9-2);}.cls-13{fill:#0f9d58;}.cls-14{fill:url(#Degradado_sin_nombre_3);}.cls-15{fill:#87ceac;}.cls-16,.cls-17{fill:#263238;}.cls-18{fill:url(#Degradado_sin_nombre_2-2);}.cls-19{fill:#4285f4;}.cls-20{fill:#a1c2fa;}</style><mask id="mask" x="91.19" y="0" width="108.81" height="149.61" maskUnits="userSpaceOnUse"><g transform="translate(0 -12.17)"><g id="mask-2"><path id="path-1" class="cls-1" d="M159.2,12.17H101.39a10.23,10.23,0,0,0-10.2,10.2V151.58a10.23,10.23,0,0,0,10.2,10.2H189.8a10.23,10.23,0,0,0,10.2-10.2V53Z"/></g></g></mask><linearGradient id="Degradado_sin_nombre_4" x1="-376.89" y1="585.78" x2="-376.89" y2="583.67" gradientTransform="matrix(16.45, 0, 0, -16.45, 6381.67, 9676.11)" gradientUnits="userSpaceOnUse"><stop offset="0" stop-color="#bf360c" stop-opacity="0.2"/><stop offset="1" stop-color="#bf360c" stop-opacity="0.02"/></linearGradient><radialGradient id="Degradado_sin_nombre_2" cx="-400.32" cy="603.98" r="3.71" gradientTransform="matrix(47.33, 0, 0, -47.33, 19043, 28604.83)" gradientUnits="userSpaceOnUse"><stop offset="0" stop-color="#fff" stop-opacity="0.1"/><stop offset="1" stop-color="#fff" stop-opacity="0"/></radialGradient><mask id="mask-9-2" x="44.9" y="14.84" width="107.28" height="147.51" maskUnits="userSpaceOnUse"><g transform="translate(0 -12.17)"><g id="mask-2-3" data-name="mask-2"><path id="path-1-2" data-name="path-1" class="cls-1" d="M112,27H55A10.08,10.08,0,0,0,44.9,37.07v127.4A10.08,10.08,0,0,0,55,174.52h87.16a10.08,10.08,0,0,0,10.06-10.05V67.24Z"/></g></g></mask><linearGradient id="Degradado_sin_nombre_3" x1="-379.83" y1="584.97" x2="-379.83" y2="582.89" gradientTransform="matrix(16.45, 0, 0, -16.45, 6382.5, 9677.07)" gradientUnits="userSpaceOnUse"><stop offset="0" stop-color="#263238" stop-opacity="0.2"/><stop offset="1" stop-color="#263238" stop-opacity="0.02"/></linearGradient><radialGradient id="Degradado_sin_nombre_2-2" cx="-401.31" cy="603.69" r="3.65" gradientTransform="matrix(47.33, 0, 0, -47.33, 19043.83, 28605.78)" xlink:href="#Degradado_sin_nombre_2"/></defs><g id="Page-1"><g id="Consumer-Apps-Slides-Large-VD-R8"><g id="Hero"><g id="Personal"><g id="Slides-icon"><g id="Group"><g id="Clipped"><g class="cls-2"><path id="Path" class="cls-3" d="M159.2,12.17H101.39a10.23,10.23,0,0,0-10.2,10.2V151.58a10.23,10.23,0,0,0,10.2,10.2H189.8a10.23,10.23,0,0,0,10.2-10.2V53L176.2,36Z" transform="translate(0 -12.17)"/></g></g><g id="Clipped-2" data-name="Clipped"><g class="cls-2"><path id="Shape" class="cls-4" d="M167.7,80.17H123.5a5.11,5.11,0,0,0-5.1,5.1v44.21a5.11,5.11,0,0,0,5.1,5.1h44.2a5.12,5.12,0,0,0,5.1-5.1V85.27A5.12,5.12,0,0,0,167.7,80.17ZM166,119.28H125.2V95.47H166Z" transform="translate(0 -12.17)"/></g></g><g id="Clipped-3" data-name="Clipped"><g class="cls-2"><polygon id="Path-2" data-name="Path" class="cls-5" points="162.18 37.82 200 75.63 200 40.8 162.18 37.82"/></g></g><g id="Clipped-4" data-name="Clipped"><g class="cls-2"><g id="Group-2" data-name="Group"><path id="Path-3-3" data-name="Path" class="cls-6" d="M159.2,12.17v30.6A10.19,10.19,0,0,0,169.4,53H200Z" transform="translate(0 -12.17)"/></g></g></g><g id="Clipped-5" data-name="Clipped"><g class="cls-2"><polygon id="Path-4" data-name="Path" class="cls-7" points="159.2 0 159.2 0.85 199.15 40.8 200 40.8 159.2 0"/></g></g><g id="Clipped-6" data-name="Clipped"><g class="cls-2"><path id="Path-5-3" data-name="Path" class="cls-8" d="M101.39,12.17a10.23,10.23,0,0,0-10.2,10.2v.85A10.23,10.23,0,0,1,101.39,13H159.2v-.85Z" transform="translate(0 -12.17)"/></g></g><g id="Clipped-7" data-name="Clipped"><g class="cls-2"><path id="Path-6" data-name="Path" class="cls-9" d="M189.8,160.93H101.39a10.23,10.23,0,0,1-10.2-10.2v.85a10.23,10.23,0,0,0,10.2,10.2H189.8a10.23,10.23,0,0,0,10.2-10.2v-.85A10.23,10.23,0,0,1,189.8,160.93Z" transform="translate(0 -12.17)"/></g></g><g id="Clipped-8" data-name="Clipped"><g class="cls-2"><path id="Path-7" data-name="Path" class="cls-10" d="M169.4,53a10.19,10.19,0,0,1-10.2-10.2v.85a10.19,10.19,0,0,0,10.2,10.2H200V53Z" transform="translate(0 -12.17)"/></g></g></g><path id="Path-8-3" data-name="Path" class="cls-11" d="M159.2,12.17H101.39a10.23,10.23,0,0,0-10.2,10.2V151.58a10.23,10.23,0,0,0,10.2,10.2H189.8a10.23,10.23,0,0,0,10.2-10.2V53Z" transform="translate(0 -12.17)"/></g></g></g></g></g><g id="Page-1-2" data-name="Page-1"><g id="Consumer-Apps-Sheets-Large-VD-R8-"><g id="Hero-2" data-name="Hero"><g id="Personal-2" data-name="Personal"><g id="Sheets-icon"><g id="Group-3" data-name="Group"><g id="Clipped-9" data-name="Clipped"><g class="cls-12"><path id="Path-9" data-name="Path" class="cls-13" d="M112,27H55A10.08,10.08,0,0,0,44.9,37.07v127.4A10.08,10.08,0,0,0,55,174.52h87.16a10.08,10.08,0,0,0,10.06-10.05V67.24L128.71,50.48Z" transform="translate(0 -12.17)"/></g></g><g id="Clipped-10" data-name="Clipped"><g class="cls-12"><path id="Shape-2" data-name="Shape" class="cls-4" d="M71.72,99.09V147.7h53.64V99.09ZM95.19,141H78.42v-8.38H95.19Zm0-13.41H78.42v-8.38H95.19Zm0-13.41H78.42V105.8H95.19ZM118.65,141H101.89v-8.38h16.76Zm0-13.41H101.89v-8.38h16.76Zm0-13.41H101.89V105.8h16.76Z" transform="translate(0 -12.17)"/></g></g><g id="Clipped-11" data-name="Clipped"><g class="cls-12"><polygon id="Path-10-3" data-name="Path" class="cls-14" points="114.89 52.13 152.18 89.41 152.18 55.07 114.89 52.13"/></g></g><g id="Clipped-12" data-name="Clipped"><g class="cls-12"><g id="Group-4" data-name="Group"><path id="Path-11" data-name="Path" class="cls-15" d="M112,27V57.19a10.05,10.05,0,0,0,10.06,10h30.17Z" transform="translate(0 -12.17)"/></g></g></g><g id="Clipped-13" data-name="Clipped"><g class="cls-12"><path id="Path-12-3" data-name="Path" class="cls-8" d="M55,27A10.08,10.08,0,0,0,44.9,37.07v.84A10.09,10.09,0,0,1,55,27.85h57V27Z" transform="translate(0 -12.17)"/></g></g><g id="Clipped-14" data-name="Clipped"><g class="cls-12"><path id="Path-13" data-name="Path" class="cls-16" d="M142.12,173.69H55A10.09,10.09,0,0,1,44.9,163.63v.84A10.08,10.08,0,0,0,55,174.52h87.16a10.08,10.08,0,0,0,10.06-10.05v-.84A10.09,10.09,0,0,1,142.12,173.69Z" transform="translate(0 -12.17)"/></g></g><g id="Clipped-15" data-name="Clipped"><g class="cls-12"><path id="Path-14-3" data-name="Path" class="cls-17" d="M122,67.24a10.05,10.05,0,0,1-10.06-10V58a10.05,10.05,0,0,0,10.06,10h30.17v-.84Z" transform="translate(0 -12.17)"/></g></g></g><path id="Path-15" data-name="Path" class="cls-18" d="M112,27H55A10.08,10.08,0,0,0,44.9,37.07v127.4A10.08,10.08,0,0,0,55,174.52h87.16a10.08,10.08,0,0,0,10.06-10.05V67.24Z" transform="translate(0 -12.17)"/></g></g></g></g></g><path class="cls-19" d="M67.5,40.94H10.12A10.39,10.39,0,0,0,0,51.07V179.32a10.38,10.38,0,0,0,10.13,10.13H97.88A10.38,10.38,0,0,0,108,179.32V81.44L84.38,64.57Z" transform="translate(0 -12.17)"/><path class="cls-4" d="M27,148.94H81V142.2H27v6.74Zm0,13.51H67.5V155.7H27Zm0-47.26v6.75H81v-6.75Zm0,20.25H81v-6.75H27v6.75Z" transform="translate(0 -12.17)"/><path class="cls-20" d="M67.5,40.94V71.32A10.37,10.37,0,0,0,77.62,81.44H108Z" transform="translate(0 -12.17)"/></svg>