<svg id="Capa_1" data-name="Capa 1" xmlns="http://www.w3.org/2000/svg" viewBox="0 0 2432.44 2493.24"><defs><style>.cls-1{fill:#fff;}</style></defs><polygon class="cls-1" points="1026.7 574.03 1333.09 334.03 1996.91 328.92 2262.45 1013.17 2160.32 2105.94 1190.11 2126.37 1047.13 1962.96 822.45 1845.52 281.17 1237.86 1026.7 574.03"/><path d="M1585.94,1247.26l436.32-753.42,210.83,753.42-210.84,753.25-436.31-753.25Zm-212.66,122.36,436.38,753.3-760-194.7-549-558.6Zm436.28-998.23-436.28,753.43H500.63l549-558.64Zm622.88,619.47L2166.25.57,1172.72,266,1025.64,524.54,727.21,522.4,0,1247.33l727.21,724.76h0l298.31-2.21,147.28,258.58,993.42,265.35,266.18-990.1-151.17-256.44,151.17-256.39Z" transform="translate(0 -0.57)"/></svg>